<?xml version="1.0" encoding="UTF-8" standalone="no"?>
<svg
   xmlns:osb="http://www.openswatchbook.org/uri/2009/osb"
   xmlns:dc="http://purl.org/dc/elements/1.1/"
   xmlns:cc="http://creativecommons.org/ns#"
   xmlns:rdf="http://www.w3.org/1999/02/22-rdf-syntax-ns#"
   xmlns:svg="http://www.w3.org/2000/svg"
   xmlns="http://www.w3.org/2000/svg"
   xmlns:xlink="http://www.w3.org/1999/xlink"
   xmlns:sodipodi="http://sodipodi.sourceforge.net/DTD/sodipodi-0.dtd"
   xmlns:inkscape="http://www.inkscape.org/namespaces/inkscape"
   width="24"
   height="24"
   viewBox="0 0 24 24"
   version="1.1"
   id="svg932"
   sodipodi:docname="github.svg"
   inkscape:version="0.92.5 (2060ec1f9f, 2020-04-08)">
  <metadata
     id="metadata938">
    <rdf:RDF>
      <cc:Work
         rdf:about="">
        <dc:format>image/svg+xml</dc:format>
        <dc:type
           rdf:resource="http://purl.org/dc/dcmitype/StillImage" />
      </cc:Work>
    </rdf:RDF>
  </metadata>
  <defs
     id="defs936">
    <linearGradient
       id="linearGradient944"
       osb:paint="solid">
      <stop
         style="stop-color:#ffffff;stop-opacity:1;"
         offset="0"
         id="stop942" />
    </linearGradient>
    <linearGradient
       inkscape:collect="always"
       xlink:href="#linearGradient944"
       id="linearGradient946"
       x1="2.0694244"
       y1="11.736743"
       x2="21.983321"
       y2="11.736743"
       gradientUnits="userSpaceOnUse" />
  </defs>
  <sodipodi:namedview
     pagecolor="#ffffff"
     bordercolor="#666666"
     borderopacity="1"
     objecttolerance="10"
     gridtolerance="10"
     guidetolerance="10"
     inkscape:pageopacity="0"
     inkscape:pageshadow="2"
     inkscape:window-width="1920"
     inkscape:window-height="1029"
     id="namedview934"
     showgrid="false"
     inkscape:zoom="33.375"
     inkscape:cx="12"
     inkscape:cy="12"
     inkscape:window-x="1080"
     inkscape:window-y="475"
     inkscape:window-maximized="1"
     inkscape:current-layer="svg932" />
  <path
     fill-rule="evenodd"
     clip-rule="evenodd"
     d="M12.026,2c-5.509,0-9.974,4.465-9.974,9.974c0,4.406,2.857,8.145,6.821,9.465 c0.499,0.09,0.679-0.217,0.679-0.481c0-0.237-0.008-0.865-0.011-1.696c-2.775,0.602-3.361-1.338-3.361-1.338 c-0.452-1.152-1.107-1.459-1.107-1.459c-0.905-0.619,0.069-0.605,0.069-0.605c1.002,0.07,1.527,1.028,1.527,1.028 c0.89,1.524,2.336,1.084,2.902,0.829c0.091-0.645,0.351-1.085,0.635-1.334c-2.214-0.251-4.542-1.107-4.542-4.93 c0-1.087,0.389-1.979,1.024-2.675c-0.101-0.253-0.446-1.268,0.099-2.64c0,0,0.837-0.269,2.742,1.021 c0.798-0.221,1.649-0.332,2.496-0.336c0.849,0.004,1.701,0.115,2.496,0.336c1.906-1.291,2.742-1.021,2.742-1.021 c0.545,1.372,0.203,2.387,0.099,2.64c0.64,0.696,1.024,1.587,1.024,2.675c0,3.833-2.33,4.675-4.552,4.922 c0.355,0.308,0.675,0.916,0.675,1.846c0,1.334-0.012,2.41-0.012,2.737c0,0.267,0.178,0.577,0.687,0.479 C19.146,20.115,22,16.379,22,11.974C22,6.465,17.535,2,12.026,2z"
     id="path930" />
  <path
     style="opacity:1;fill:url(#linearGradient946);fill-opacity:1;stroke-width:0.02996255"
     d="M 8.5153558,21.29283 C 3.7468342,19.465935 1.1348411,14.449337 2.3773262,9.5041199 3.0438226,6.8513963 4.8644731,4.5245701 7.3082067,3.2023603 8.4468291,2.5862958 9.7963524,2.1799164 11.112383,2.056816 c 0.57306,-0.053604 1.816881,-0.021872 2.346793,0.059869 1.69063,0.2607884 3.195743,0.8861173 4.519427,1.8776852 3.791699,2.8403513 5.062015,7.8839578 3.070606,12.1913978 -1.094766,2.36799 -3.213887,4.299092 -5.668319,5.165399 -0.303287,0.107047 -0.433289,0.114515 -0.608517,0.03496 -0.246177,-0.111772 -0.23237,-0.0041 -0.251767,-1.963019 -0.01644,-1.65962 -0.02021,-1.750613 -0.08243,-1.988433 -0.084,-0.321039 -0.230175,-0.633141 -0.402509,-0.859389 -0.07531,-0.09888 -0.134266,-0.182468 -0.131004,-0.18576 0.0033,-0.0033 0.153801,-0.02771 0.33453,-0.05426 0.989213,-0.145321 1.781535,-0.421231 2.41227,-0.840025 0.29082,-0.193098 0.759045,-0.658147 0.949105,-0.942669 0.422699,-0.632782 0.660209,-1.35255 0.759624,-2.302021 0.04541,-0.433671 0.0194,-1.378147 -0.04592,-1.667778 C 18.196336,10.059834 17.961381,9.5351625 17.67023,9.1445693 17.571959,9.0127341 17.469841,8.8754556 17.443302,8.8395062 c -0.04493,-0.060864 -0.04251,-0.087674 0.03515,-0.3895131 0.075,-0.2914993 0.08333,-0.3739488 0.08266,-0.8185324 C 17.560482,7.2061519 17.54951,7.0906852 17.482588,6.805025 17.439804,6.6223955 17.373194,6.393182 17.334567,6.2956617 L 17.264335,6.1183521 17.071494,6.109286 C 16.548605,6.0847029 15.683501,6.4053741 14.841121,6.9360267 L 14.5152,7.1413384 14.166963,7.0584476 C 13.536428,6.908361 13.039319,6.8487572 12.269806,6.8309759 11.320108,6.8090313 10.637243,6.875935 9.8183263,7.0711599 L 9.5340824,7.1389219 9.1745318,6.9154604 C 8.5340929,6.5174259 7.8966133,6.2411032 7.3992393,6.1459398 7.156764,6.0995467 6.8591215,6.0905255 6.8004509,6.1277912 6.7075883,6.1867748 6.5402379,6.8338052 6.4924225,7.3187272 6.4527032,7.721544 6.4912629,8.1748063 6.596021,8.5364863 L 6.667117,8.7819485 6.539683,8.9332962 C 6.0986082,9.4571428 5.8019062,10.128857 5.6964434,10.842336 c -0.059179,0.400361 -0.044412,1.217179 0.031287,1.730675 0.32454,2.201453 1.6371224,3.416644 4.0672231,3.765443 l 0.3795225,0.05447 -0.111547,0.121139 c -0.2052657,0.222915 -0.4204076,0.686057 -0.4688965,1.009404 -0.011178,0.07454 -0.029564,0.150479 -0.040856,0.168751 -0.011293,0.01827 -0.1415568,0.07337 -0.2894759,0.122438 -0.8408673,0.278943 -1.560343,0.156787 -2.125229,-0.360829 C 7.0220327,17.347132 6.8538409,17.140746 6.7200084,16.940336 6.3567233,16.396328 5.9818742,16.07309 5.5528186,15.93385 5.288376,15.848032 5.1150649,15.830635 4.9226123,15.870588 c -0.3850304,0.07993 -0.3151902,0.294979 0.2120876,0.653047 0.3868998,0.262739 0.7537618,0.749428 0.9927026,1.316948 0.1545253,0.36702 0.2742751,0.568301 0.4571419,0.768387 0.2862029,0.313151 0.6429489,0.529856 1.0976288,0.666752 0.3512833,0.105766 1.0971047,0.134192 1.5340725,0.05847 0.1547778,-0.02682 0.2851374,-0.04504 0.2896875,-0.04049 0.00455,0.0046 0.012745,0.412745 0.018211,0.907101 0.00948,0.857477 0.00715,0.903651 -0.050672,1.003695 C 9.3985684,21.334093 9.19131,21.444587 9.025861,21.443126 8.9550769,21.4425 8.7432333,21.380133 8.5153558,21.29283 Z"
     id="path940"
     inkscape:connector-curvature="0" />
</svg>
