<?xml version="1.0" encoding="UTF-8" standalone="no"?>
<svg
   xmlns:osb="http://www.openswatchbook.org/uri/2009/osb"
   xmlns:dc="http://purl.org/dc/elements/1.1/"
   xmlns:cc="http://creativecommons.org/ns#"
   xmlns:rdf="http://www.w3.org/1999/02/22-rdf-syntax-ns#"
   xmlns:svg="http://www.w3.org/2000/svg"
   xmlns="http://www.w3.org/2000/svg"
   xmlns:sodipodi="http://sodipodi.sourceforge.net/DTD/sodipodi-0.dtd"
   xmlns:inkscape="http://www.inkscape.org/namespaces/inkscape"
   width="24"
   height="24"
   viewBox="0 0 24 24"
   version="1.1"
   id="svg888"
   sodipodi:docname="x-white.svg"
   inkscape:version="0.92.5 (2060ec1f9f, 2020-04-08)">
  <metadata
     id="metadata894">
    <rdf:RDF>
      <cc:Work
         rdf:about="">
        <dc:format>image/svg+xml</dc:format>
        <dc:type
           rdf:resource="http://purl.org/dc/dcmitype/StillImage" />
        <dc:title></dc:title>
      </cc:Work>
    </rdf:RDF>
  </metadata>
  <defs
     id="defs892">
    <linearGradient
       id="linearGradient900"
       osb:paint="solid">
      <stop
         style="stop-color:#000000;stop-opacity:1;"
         offset="0"
         id="stop898" />
    </linearGradient>
  </defs>
  <sodipodi:namedview
     pagecolor="#ffffff"
     bordercolor="#666666"
     borderopacity="1"
     objecttolerance="10"
     gridtolerance="10"
     guidetolerance="10"
     inkscape:pageopacity="0"
     inkscape:pageshadow="2"
     inkscape:window-width="1920"
     inkscape:window-height="1029"
     id="namedview890"
     showgrid="false"
     inkscape:zoom="33.375"
     inkscape:cx="12"
     inkscape:cy="12"
     inkscape:window-x="1080"
     inkscape:window-y="376"
     inkscape:window-maximized="1"
     inkscape:current-layer="svg888" />
  <path
     d="M16.192 6.344L11.949 10.586 7.707 6.344 6.293 7.758 10.535 12 6.293 16.242 7.707 17.656 11.949 13.414 16.192 17.656 17.606 16.242 13.364 12 17.606 7.758z"
     id="path886" />
  <path
     style="opacity:1;fill:#ffffff;fill-opacity:1;stroke-width:0.02996255"
     d="M 7.0096573,16.942403 6.3131066,16.245852 8.4328787,14.125922 10.552651,12.005993 8.4328787,9.8860626 6.3131066,7.766133 7.0096573,7.0695824 7.7062079,6.3730317 l 2.1199296,2.1197721 2.1199295,2.1197722 2.11993,-2.1197722 2.11993,-2.1197721 0.696551,0.6965507 0.69655,0.6965506 -2.119772,2.1199296 -2.119772,2.1199304 2.119772,2.119929 2.119772,2.11993 -0.69655,0.696551 -0.696551,0.69655 -2.11993,-2.119772 -2.11993,-2.119772 -2.1199295,2.119772 -2.1199296,2.119772 z"
     id="path896"
     inkscape:connector-curvature="0" />
</svg>
